<svg height="512" viewBox="0 0 64 64" width="512" xmlns="http://www.w3.org/2000/svg"><g id="Fill_Outline" data-name="Fill Outline"><path d="m7 3h42v58h-42z" fill="#c4f236"/><path d="m15 12v-9h-8v58h42v-22h-7a27 27 0 0 1 -27-27z" fill="#a1d51c"/><path d="m49 3h8v58h-8z" fill="#4891d3"/><path d="m49 3h4v58h-4z" fill="#57b7eb"/><path d="m53 18h8v6h-8z" fill="#c4f236"/><path d="m57 28h4v6h-4z" fill="#e59730"/><path d="m53 38h8v6h-8z" fill="#a1d51c"/><rect fill="#57b7eb" height="4" rx="2" width="10" x="3" y="8"/><rect fill="#57b7eb" height="4" rx="2" width="10" x="3" y="52"/><rect fill="#57b7eb" height="4" rx="2" width="10" x="3" y="30"/><rect fill="#57b7eb" height="4" rx="2" width="10" x="3" y="19"/><rect fill="#57b7eb" height="4" rx="2" width="10" x="3" y="41"/><path d="m20 46h20v4h-20z" fill="#57b7eb"/><path d="m26.4 16.4-1.65-1.65a2.34 2.34 0 0 0 -3.3 0l-1.65 1.65a9.34 9.34 0 0 0 0 13.2l6.6 6.6a9.34 9.34 0 0 0 13.2 0l1.65-1.65a2.34 2.34 0 0 0 0-3.3l-1.65-1.65a2.34 2.34 0 0 0 -3.3 0l-1.65 1.65a2.34 2.34 0 0 1 -3.3 0l-6.6-6.6a2.34 2.34 0 0 1 0-3.3l1.65-1.65a2.34 2.34 0 0 0 0-3.3z" fill="#f9e109"/><path d="m40.9 30.9-1.3 1.3a9.34 9.34 0 0 1 -13.2 0l-6.6-6.6a9.27 9.27 0 0 1 -2.51-4.6 9.32 9.32 0 0 0 2.51 8.6l6.6 6.6a9.34 9.34 0 0 0 13.2 0l1.65-1.65a2.34 2.34 0 0 0 0-3.3z" fill="#fcbc04"/><path d="m26.4 36.2a9.3 9.3 0 0 0 9.78 2.16 27 27 0 0 1 -19.08-15.9 9.32 9.32 0 0 0 2.7 7.14z" fill="#e59730"/><path d="m12 10h-6a2 2 0 0 1 -2-1.74 2 2 0 0 0 1 3.74h6a2 2 0 0 0 2-2 2.06 2.06 0 0 0 0-.26 2 2 0 0 1 -1 .26z" fill="#4891d3"/><path d="m12 21h-6a2 2 0 0 1 -2-1.74 2 2 0 0 0 1 3.74h6a2 2 0 0 0 2-2 2.06 2.06 0 0 0 0-.26 2 2 0 0 1 -1 .26z" fill="#4891d3"/><path d="m12 32h-6a2 2 0 0 1 -2-1.74 2 2 0 0 0 1 3.74h6a2 2 0 0 0 2-2 2.06 2.06 0 0 0 0-.26 2 2 0 0 1 -1 .26z" fill="#4891d3"/><path d="m12 43h-6a2 2 0 0 1 -2-1.74 2 2 0 0 0 1 3.74h6a2 2 0 0 0 2-2 2.06 2.06 0 0 0 0-.26 2 2 0 0 1 -1 .26z" fill="#4891d3"/><path d="m12 54h-6a2 2 0 0 1 -2-1.74 2 2 0 0 0 1 3.74h6a2 2 0 0 0 2-2 2.06 2.06 0 0 0 0-.26 2 2 0 0 1 -1 .26z" fill="#4891d3"/><path d="m49 8h8v6h-8z" fill="#f9e109"/><g fill="#39519d"><path d="m61 25a1 1 0 0 0 1-1v-6a1 1 0 0 0 -1-1h-7v-2h3a1 1 0 0 0 1-1v-6a1 1 0 0 0 -1-1h-3v-3h3a1 1 0 0 0 0-2h-50a1 1 0 0 0 -1 1v4h-1a3 3 0 0 0 0 6h1v5h-1a3 3 0 0 0 0 6h6a3 3 0 0 0 0-6h-3v-5h3a3 3 0 0 0 0-6h-3v-3h40v56h-40v-3h3a3 3 0 0 0 0-6h-3v-2a1 1 0 0 0 -2 0v2h-1a3 3 0 0 0 0 6h1v4a1 1 0 0 0 1 1h50a1 1 0 0 0 1-1v-13a1 1 0 0 0 -2 0v12h-2v-15h7a1 1 0 0 0 1-1v-6a1 1 0 0 0 -1-1h-3v-2h3a1 1 0 0 0 1-1v-6a1 1 0 0 0 -1-1h-3v-2zm-49-4a1 1 0 0 1 -1 1h-6a1 1 0 0 1 0-2h6a1 1 0 0 1 1 1zm0-11a1 1 0 0 1 -1 1h-6a1 1 0 0 1 0-2h6a1 1 0 0 1 1 1zm-8 44a1 1 0 0 1 1-1h6a1 1 0 0 1 0 2h-6a1 1 0 0 1 -1-1zm56-35v4h-6v-4zm-4-6h-6v-4h6zm-4-6h-2v-3h2zm-2 53v-45h2v45zm10-17h-6v-4h6zm0-14v4h-2v-4zm-4 8h-2v-12h2z"/><path d="m5 40a3 3 0 0 0 0 6h6a3 3 0 0 0 0-6h-3v-5h3a3 3 0 0 0 0-6h-3v-2a1 1 0 0 0 -2 0v2h-1a3 3 0 0 0 0 6h1v5zm-1-8a1 1 0 0 1 1-1h6a1 1 0 0 1 0 2h-6a1 1 0 0 1 -1-1zm8 11a1 1 0 0 1 -1 1h-6a1 1 0 0 1 0-2h6a1 1 0 0 1 1 1z"/><path d="m31 21a3 3 0 0 1 3 3 1 1 0 0 0 2 0 5 5 0 0 0 -5-5 1 1 0 0 0 0 2z"/><path d="m31 17a7 7 0 0 1 7 7 1 1 0 0 0 2 0 9 9 0 0 0 -9-9 1 1 0 0 0 0 2z"/><path d="m31 12a12 12 0 0 1 12 12 1 1 0 0 0 2 0 14 14 0 0 0 -14-14 1 1 0 0 0 0 2z"/><path d="m27.11 20.41a3.36 3.36 0 0 0 0-4.72l-1.65-1.69a3.42 3.42 0 0 0 -4.72 0l-1.65 1.65a10.35 10.35 0 0 0 0 14.62l6.6 6.6a10.36 10.36 0 0 0 14.62 0l1.69-1.61a3.36 3.36 0 0 0 0-4.72l-1.65-1.65a3.42 3.42 0 0 0 -4.72 0l-1.65 1.65a1.33 1.33 0 0 1 -1.88 0 1 1 0 0 0 -1.46 1.46 3.34 3.34 0 0 0 4.72 0l1.64-1.69a1.33 1.33 0 0 1 1.88 0l1.66 1.69a1.33 1.33 0 0 1 0 1.88l-1.65 1.65a8.34 8.34 0 0 1 -11.78 0l-6.6-6.6a8.34 8.34 0 0 1 0-11.78l1.65-1.65a1.33 1.33 0 0 1 1.88 0l1.65 1.65a1.33 1.33 0 0 1 0 1.88l-1.69 1.61a3.34 3.34 0 0 0 0 4.72l4 4a1 1 0 1 0 1.46-1.36l-4-4a1.33 1.33 0 0 1 0-1.88z"/><path d="m40 47a1 1 0 0 0 0-2h-20a1 1 0 0 0 -1 1v4a1 1 0 0 0 1 1h20a1 1 0 0 0 0-2h-19v-2z"/><path d="m21 53a1 1 0 0 0 0 2h14a1 1 0 0 0 0-2z"/></g></g></svg>